<?xml version="1.0" standalone="no"?>
<!DOCTYPE svg PUBLIC "-//W3C//DTD SVG 20010904//EN"
 "http://www.w3.org/TR/2001/REC-SVG-20010904/DTD/svg10.dtd">
<svg version="1.0" xmlns="http://www.w3.org/2000/svg"
 width="250.000000pt" height="250.000000pt" viewBox="0 0 250.000000 250.000000"
 preserveAspectRatio="xMidYMid meet">
<metadata>
Created by potrace 1.11, written by Peter Selinger 2001-2013
</metadata>
<g transform="translate(0.000000,250.000000) scale(0.100000,-0.100000)"
fill="#000000" stroke="none">
<path d="M441 682 c-48 -24 -75 -64 -74 -108 2 -55 29 -83 111 -115 91 -35
102 -43 102 -84 0 -41 -27 -65 -80 -72 -33 -5 -48 -1 -71 16 -23 17 -33 19
-49 11 -25 -13 -25 -22 -2 -43 28 -25 67 -32 162 -28 31 1 89 59 95 95 8 41
-15 100 -45 116 -12 6 -47 20 -78 31 -71 25 -92 44 -92 85 0 25 7 38 27 51 34
22 97 21 124 -3 18 -16 21 -16 36 -1 22 21 4 43 -46 57 -52 14 -81 12 -120 -8z"/>
<path d="M675 678 c-3 -8 -4 -103 -3 -213 l3 -199 25 0 c25 0 25 0 26 94 l2
95 65 2 c108 3 152 36 151 114 -1 54 -25 91 -73 107 -45 15 -190 15 -196 0z
m201 -61 c16 -19 21 -35 18 -54 -8 -47 -28 -58 -100 -58 l-66 0 0 68 c1 37 1
70 1 73 1 4 29 4 63 2 51 -4 65 -9 84 -31z"/>
<path d="M985 678 c-3 -7 -4 -103 -3 -213 l3 -199 25 0 25 0 0 209 0 210 -23
3 c-12 2 -24 -3 -27 -10z"/>
<path d="M1094 677 c-2 -7 -3 -102 -2 -212 l3 -199 25 0 25 0 0 172 c0 95 2
172 5 172 3 0 50 -66 105 -147 132 -193 137 -199 172 -197 l28 1 0 209 0 209
-22 3 c-23 3 -23 2 -25 -140 -1 -79 -2 -155 -1 -170 1 -16 -2 -28 -6 -28 -3 0
-59 77 -125 170 -107 154 -121 170 -148 170 -16 0 -31 -6 -34 -13z"/>
<path d="M1652 673 c-16 -28 -172 -384 -175 -395 -1 -6 9 -12 22 -13 20 -1 27
7 47 52 l24 53 105 0 105 0 24 -53 c20 -45 27 -54 47 -52 14 1 23 8 22 16 -2
8 -40 102 -86 209 -67 156 -88 196 -105 198 -12 2 -25 -4 -30 -15z m72 -157
c20 -49 34 -91 32 -94 -3 -2 -40 -4 -83 -4 -86 0 -88 3 -57 64 7 14 23 52 35
83 12 31 25 53 29 48 5 -4 24 -48 44 -97z"/>
<path d="M1894 677 c-3 -8 -4 -103 -2 -211 l3 -197 120 -1 c113 0 120 2 123
21 3 19 -2 20 -93 23 l-96 3 -2 185 c-2 184 -2 185 -25 188 -12 2 -24 -3 -28
-11z"/>
</g>
</svg>
